<?xml version="1.0" encoding="UTF-8"?>
<!DOCTYPE svg PUBLIC "-//W3C//DTD SVG 1.1//EN" "http://www.w3.org/Graphics/SVG/1.1/DTD/svg11.dtd">
<!-- Creator: CorelDRAW 2020 (64-Bit) -->
<svg xmlns="http://www.w3.org/2000/svg" xml:space="preserve" width="297mm" height="210mm" version="1.1" style="shape-rendering:geometricPrecision; text-rendering:geometricPrecision; image-rendering:optimizeQuality; fill-rule:evenodd; clip-rule:evenodd"
viewBox="0 0 297000 210000"
 xmlns:xlink="http://www.w3.org/1999/xlink"
 xmlns:xodm="http://www.corel.com/coreldraw/odm/2003">
 <defs>
  <style type="text/css">
   <![CDATA[
    .fil1 {fill:black}
    .fil0 {fill:black;fill-rule:nonzero}
   ]]>
  </style>
 </defs>
 <g id="Layer_x0020_1">
  <metadata id="CorelCorpID_0Corel-Layer"/>
  <g id="_2688193819344">
   <path class="fil0" d="M195438.2 117119.3l-319.2 0 0 2295 425.6 0c592.1,0 1043,-99.2 1355.3,-299.5 312.3,-200.4 467.2,-487.8 467.2,-862.2 0,-392.6 -152.7,-677.9 -460.3,-860.1 -307.5,-182.1 -797.9,-273.2 -1468.6,-273.2zm-2664.2 7018.6l0 -8597.2 2527.8 0c777.1,0 1394.6,48.6 1850.2,147.8 455.7,99.1 860.3,265.1 1214.2,497.8 365.4,232.8 649.9,524.2 851.1,874.3 201.2,350.1 300.6,720.5 300.6,1111.1 0,870.2 -353.8,1558.3 -1061.5,2068.3 -705.4,510 -1665.2,765 -2877,765 -125,0 -219.8,0 -284.6,-2 -62.4,-2 -122.5,-6.1 -175.8,-10.1l0 3145 -2345 0zm10860.7 -7030.7l-386.3 0 0 2380 495 0c592,0 1043,-105.3 1355.3,-313.7 312.2,-208.5 467.2,-510 467.2,-900.6 0,-410.9 -150.4,-706.3 -453.4,-890.5 -302.9,-184.2 -795.6,-275.2 -1477.8,-275.2zm-2662 7030.7l0 -8597.2 2525.5 0c809.5,0 1436.3,46.6 1882.6,139.7 446.4,93.1 839.5,246.9 1184.2,465.4 365.3,228.7 649.9,512.1 851,850.1 201.2,337.9 300.7,694.1 300.7,1068.5 0,542.4 -157.3,1016 -471.8,1422.8 -314.6,406.8 -767.8,724.5 -1359.9,955.2l2997.3 3695.5 -2678.2 0 -2622.7 -3375.7 -333 0 0 3375.7 -2275.7 0zm10645.8 -4298.6c0,746.8 249.6,1374.2 749.3,1878.1 499.5,503.9 1114.6,756.9 1845.6,756.9 735.3,0 1352.9,-250.9 1850.1,-752.8 497.2,-504 744.8,-1131.4 744.8,-1882.2 0,-754.9 -247.6,-1386.3 -744.8,-1890.2 -497.2,-504 -1114.8,-756.9 -1850.1,-756.9 -731,0 -1346.1,252.9 -1845.6,756.9 -499.7,503.9 -749.3,1135.3 -749.3,1890.2zm-2414.6 0c0,-637.5 124.9,-1232.5 377,-1787 249.7,-556.6 619.8,-1052.4 1107.8,-1491.6 460.2,-418.9 996.7,-740.7 1607.3,-963.3 608.3,-224.6 1248.9,-336 1917.4,-336 668.4,0 1309,113.4 1921.9,338 612.8,224.7 1156.4,550.5 1630.5,973.5 478.7,423 841.8,910.7 1087,1467.2 247.4,554.6 370,1155.6 370,1799.2 0,538.3 -85.6,1044.3 -256.8,1517.9 -173.4,473.5 -427.8,906.6 -767.8,1299.3 -478.7,556.5 -1066.2,989.6 -1764.7,1297.2 -698.4,309.7 -1438.5,463.5 -2220.1,463.5 -663.9,0 -1299.8,-113.3 -1908.1,-338 -608.2,-224.6 -1147.2,-550.5 -1616.6,-973.4 -488,-437.2 -858.1,-933 -1107.8,-1485.5 -252.1,-550.5 -377,-1145.5 -377,-1781zm15220.3 1870c603.6,323.8 1117,548.5 1540.3,680 420.9,129.5 832.5,194.3 1235,194.3 404.7,0 730.8,-78.9 978.4,-234.8 245.1,-155.8 367.6,-356.1 367.6,-601 0,-350.1 -437.1,-746.8 -1313.6,-1184 -141.1,-70.8 -249.8,-127.5 -326.1,-165.9l-663.8 -327.9c-645.2,-319.7 -1124,-682 -1433.8,-1084.7 -312.4,-402.8 -467.3,-860.2 -467.3,-1370.2 0,-692.1 298.3,-1258.8 895.1,-1702 594.4,-443.2 1364.5,-663.8 2308.1,-663.8 349.2,0 726.2,36.4 1131,107.3 407,70.8 858,182.1 1355.2,331.9l0 2013.7c-474,-259.1 -922.8,-459.4 -1348.4,-601.1 -425.4,-141.7 -786.2,-212.5 -1084.6,-212.5 -330.7,0 -589.8,62.7 -779.3,186.2 -189.7,123.4 -284.6,293.4 -284.6,505.9 0,149.8 55.5,289.4 168.9,419 113.3,131.5 282.2,248.9 508.8,356.2l1151.8 556.5c964.4,467.5 1612,898.6 1945,1293.2 333,396.7 499.5,864.2 499.5,1406.6 0,837.8 -326,1515.8 -978.2,2031.9 -654.6,516.1 -1519.6,773.1 -2599.6,773.1 -365.5,0 -763.3,-34.4 -1193.4,-101.2 -427.9,-66.8 -902,-172 -1415.5,-313.7l-196.5 -2293zm10086 2428.6l0 -6800 -3122.3 0 0 -1797.2 8575.8 0 0 1797.2 -3108.4 0 0 6800 -2345.1 0zm8800 -8597.2l0 4723.6c0,758.9 159.6,1327.6 478.8,1704.1 316.8,378.4 800.2,566.6 1447.8,566.6 622.1,0 1098.5,-176 1424.6,-528.2 328.4,-350.1 492.6,-862.1 492.6,-1534l0 -4932.1 2095.4 0 0 4932.1c0,1240.6 -363.1,2210 -1091.6,2904.1 -726.2,694.2 -1736.9,1040.3 -3029.7,1040.3 -1306.8,0 -2322.1,-344.1 -3048.3,-1032.2 -723.9,-688.1 -1087,-1655.4 -1087,-2900.1l0 -4944.2 2317.4 0zm10409.7 6751.5l515.9 0c1024.5,0 1827.1,-216.6 2405.2,-651.7 578.2,-435.1 867.4,-1034.2 867.4,-1801.2 0,-767 -289.2,-1368.1 -867.4,-1807.3 -578.1,-439.1 -1380.7,-657.7 -2405.2,-657.7l-515.9 0 0 4917.9zm-2317.3 1845.7l0 -8597.2 2608.8 0c1834,0 3272.5,382.5 4311,1149.6 1038.4,767 1558.8,1817.3 1558.8,3149 0,797.4 -205.8,1507.8 -617.5,2125 -409.4,619.3 -1013,1127.3 -1808.6,1528 -453.3,228.7 -943.6,392.6 -1475.5,493.8 -529.6,101.2 -1186.5,151.8 -1968.2,151.8l-2608.8 0zm11522.3 0l0 -4080 -3510.8 -4517.2 2830.8 0 2051.4 2722.1 2261.9 -2722.1 2486.3 0 -3788.3 4434.2 0 4163 -2331.3 0z"/>
   <g>
    <path class="fil1" d="M243044.7 87144.7c-1751.7,618.2 -1236.5,3194.2 -1236.5,4945.9 0,3194.3 -515.2,7109.8 3503.4,8964.5 1751.7,721.3 3709.4,515.3 5770.3,515.3 2472.9,0 10716.2,206 12467.9,0 2060.8,-103.1 3194.2,-927.4 4224.6,-1957.8 1133.5,-1236.5 1236.5,-2988.2 1236.5,-5049 0,-1133.5 206.1,-5255.1 0,-6182.4 -515.2,-1751.7 -3194.2,-1339.6 -5049,-1339.6 -2782.1,0 -3297.3,206.1 -3297.3,2988.2 0,1957.8 515.2,4533.8 -1030.4,5255.1 -721.3,309.1 -4945.9,103 -6079.4,103 -3812.5,0 -3400.3,-515.2 -3400.3,-5976.3 0,-1030.4 -206.1,-1751.7 -927.4,-2163.9 -618.2,-206.1 -5461.1,-309.1 -6182.4,-103z"/>
    <path class="fil1" d="M191009.2 100643l-4430.7 -4842.9c-515.2,-618.3 -927.4,-1030.4 -1545.6,-1648.7 -618.3,-721.3 -2163.9,-3091.2 -3812.5,-1442.5 -721.3,618.2 -618.3,1339.5 -618.3,2472.9 0,721.3 -103,2576.1 103.1,3091.3 206,618.2 3400.3,4018.5 4224.6,5048.9l4430.8 5049c1854.7,1957.8 1339.5,1545.6 4739.8,1545.6 5976.4,0 5255.1,618.3 5255.1,-7212.8 0,-4224.7 0,-8346.3 0,-12571 0,-2679 -412.2,-3091.2 -3091.2,-3091.2 -1957.8,0 -4533.8,-412.1 -5152,1236.5 -309.2,927.4 0,10304.1 -103.1,12364.9z"/>
    <path class="fil1" d="M116820.1 100643l-1545.6 -1545.6c-206.1,-309.1 -515.2,-515.2 -721.3,-824.3l-5255.1 -5667.3c-618.2,-618.2 -1751.6,-515.2 -2369.9,0 -618.2,618.3 -515.2,1442.6 -515.2,2576 0,2885.2 -412.2,2988.2 1442.6,4842.9 515.2,515.2 927.3,1133.5 1442.5,1648.7 1030.4,1133.4 2060.9,2266.9 2988.2,3297.3 206.1,309.1 412.2,515.2 721.3,824.3l2163.9 2576c412.1,412.2 1030.4,1236.5 1648.6,1442.6 515.2,206.1 5255.1,103 6182.4,103 1133.5,0 1648.7,-309.1 2060.8,-1030.4 309.2,-824.3 103.1,-17207.7 103.1,-18753.4 0,-2782 -412.2,-3091.2 -3091.2,-3091.2 -6594.6,0 -5152.1,-1236.5 -5255.1,13601.4z"/>
    <path class="fil1" d="M159684.9 87144.7c-1133.5,206.1 -1648.7,824.3 -1648.7,2163.8 0,2679.1 -103,18753.4 103.1,19474.7 412.1,1133.4 1339.5,1133.4 2782.1,1133.4 1133.4,0 2885.1,103.1 3915.5,0 515.2,0 927.4,-412.1 1133.5,-721.2 412.1,-412.2 412.1,-824.4 412.1,-1545.7 0,-2679 206.1,-18753.3 -103,-19474.6 -515.2,-1030.4 -1339.6,-1133.5 -2782.1,-1133.5 -927.4,103.1 -2988.2,-103 -3812.5,103.1z"/>
    <path class="fil1" d="M85495.8 87144.7c-1133.5,206.1 -1648.7,824.3 -1648.7,2163.8 0,2679.1 -103,18753.4 103.1,19474.7 412.1,1133.4 1339.5,1133.4 2782.1,1133.4 6079.4,0 5461.1,721.3 5461.1,-6182.4 0,-1854.7 206.1,-14837.8 -103,-15559.1 -515.2,-1030.4 -1442.6,-1133.5 -2782.1,-1133.5 -927.4,103.1 -2988.2,-103 -3812.5,103.1z"/>
    <path class="fil1" d="M204404.5 87247.7c-1236.5,515.2 -1236.5,1236.5 -1133.5,2679.1l0 11746.6c0,1442.6 -309.1,6697.6 206.1,7522 721.3,927.3 1854.7,721.2 3194.3,721.2 3503.4,0 4945.9,618.3 4945.9,-2782.1l0 -11746.6c0,-1442.6 206.1,-6594.6 -309.1,-7418.9 -721.3,-1030.4 -1648.6,-927.4 -3091.2,-927.4 -927.4,0 -3091.2,-103 -3812.5,206.1z"/>
    <path class="fil1" d="M171637.6 87144.7c-1133.5,412.1 -1339.5,1236.5 -1339.5,2576l0 11746.6c0,1442.6 -206.1,6594.6 206,7522 618.3,1030.4 1545.6,927.3 2988.2,927.3 5770.3,0 5152,618.3 5152,-6491.5 0,-1854.7 206.1,-14631.8 -206,-15353.1 -515.2,-1030.4 -1648.7,-1030.4 -2988.2,-1030.4 -824.3,0 -3194.3,-103 -3812.5,103.1z"/>
    <path class="fil1" d="M97345.4 87247.7c-1133.4,412.2 -1236.5,1133.5 -1236.5,2576l0 11746.7c0,1442.5 -206,6594.5 206.1,7418.9 618.3,1030.4 1648.7,927.3 3091.2,927.3 5667.3,0 5049,618.3 5049,-6594.6 0,-2576 0,-5255 0,-7831 0,-7728.1 824.4,-8449.4 -3297.3,-8449.4 -927.3,0 -3091.2,-103 -3812.5,206.1z"/>
    <path class="fil1" d="M137531.2 101673.4c2679,-103 5564.1,-103 8243.2,0 721.3,0 1236.5,-103 1648.7,-515.2 412.1,-206.1 618.2,-721.3 721.2,-1442.6 103.1,-5152 -206,-4327.7 -8243.2,-4327.7 -2782.1,0 -5667.1,0 -8449.2,0 -3091.3,0 -2370,2370 -2370,5976.4 0,1442.5 0,2782.1 0,4224.6 0,1236.5 -206.1,2988.2 515.2,3709.5 721.3,927.4 2060.8,618.2 3503.4,618.2 1339.5,0 2885.1,309.2 3709.5,-515.2 1236.4,-1030.4 309,-5358.1 721.2,-7728z"/>
    <path class="fil1" d="M130730.6 87144.7c-1236.5,103 -1648.7,927.3 -1648.7,2266.9 0,4842.9 -103,4121.6 7831.1,4121.6 1133.4,0 15043.8,103 15868.2,-103.1 1133.4,-103 1545.6,-927.3 1545.6,-2266.8 0,-4843 0,-4121.7 -7831.1,-4121.7 -1133.5,0 -14940.8,0 -15765.1,103.1z"/>
    <path class="fil1" d="M215635.9 87247.7c-1133.4,103.1 -1545.6,1030.4 -1545.6,2266.9 0,3915.5 -103,4018.6 3812.5,4018.6 1957.8,0 18753.4,103 19474.7,0 1133.4,-206.1 1545.6,-1133.5 1545.6,-2369.9 -103.1,-1236.5 206.1,-2679.1 -618.3,-3503.4 -721.3,-721.3 -2060.8,-515.2 -3297.3,-515.2 -1957.7,0 -18650.3,-103.1 -19371.6,103z"/>
    <path class="fil1" d="M223879.2 95491c-1854.8,515.2 -1442.6,2369.9 -1442.6,4327.7 0,1854.7 0,3812.5 0,5667.2 0,1751.7 -412.2,3915.5 1236.5,4430.7 515.2,103.1 5255,103.1 5770.2,0 1648.7,-515.2 1339.6,-2576 1339.6,-4327.7 0,-1854.7 0,-3812.5 0,-5667.2 0,-1751.7 309.1,-3915.5 -1339.6,-4327.7 -412.1,-103 -5255,-206.1 -5564.1,-103z"/>
    <path class="fil1" d="M252009.2 103631.2c-1236.5,206 -1545.6,1133.4 -1545.6,2576 103.1,1545.6 -206.1,2576 824.3,3297.3 721.3,721.3 2473,412.1 3606.5,412.1 2369.9,0 4224.6,515.2 5152,-824.3 309.1,-515.2 206.1,-1236.5 206.1,-1854.7 0,-1442.6 309.1,-2576 -721.3,-3297.3 -721.3,-618.3 -2576,-412.2 -3606.4,-412.2 -927.4,0 -3194.3,-103 -3915.6,103.1z"/>
    <path class="fil1" d="M65939.5 87335.3c1263.9,459.5 4136.4,4710.9 5055.6,6549.5 6319.8,12524.5 1378.9,27117.4 -11490.3,33437 -2757.7,1378.9 -9422.2,3102.5 -12869.4,1723.6 -2872.5,-1149 -4711,-3676.9 -4711,-6894.2l0 -11605.3c0,-2527.9 -114.9,-3906.8 1723.6,-6090 1034.2,-1378.8 2987.4,-2527.9 5170.7,-2642.7 2183.2,-115 5630.3,-115 7813.5,0l0 12524.4c0,1493.7 -114.9,2527.9 689.3,3562.1 574.6,689.4 1493.8,1378.7 2872.7,1263.9 2527.9,-114.9 5515.4,-4251.4 6664.4,-6089.9 2412.9,-3676.9 3676.9,-8043.3 3562,-13328.9 -114.9,-3217.3 -1263.9,-7238.9 -2757.6,-9881.6 -344.8,-459.7 -459.6,-689.5 -804.4,-1264 -115,-114.9 -919.1,-1263.9 -919.1,-1263.9z"/>
    <path class="fil1" d="M32387.4 122610.7c-1034.1,-459.5 -3791.8,-4366.2 -4596.1,-5745.2 -2872.6,-5515.4 -3562.2,-10915.9 -2413.1,-17120.7 1378.9,-7124 7239.1,-14133.1 14133.2,-17120.6 4711.1,-1953.4 12294.9,-3791.9 15742,1034.2 3561.9,4940.8 0,11834.9 -6204.9,11605.2 -4136.6,-114.9 -5285.6,-2757.7 -6434.6,-3906.7 -1034.1,-804.4 -2527.9,-1264 -4021.6,-919.3 -2757.8,804.3 -6204.9,5285.6 -7698.6,7928.5 -2987.5,5285.4 -3562.1,11375.4 -1953.5,17235.4 1263.9,4251.5 3102.5,6204.8 3447.2,7009.2z"/>
   </g>
  </g>
 </g>
</svg>
