<?xml version="1.0" encoding="UTF-8"?>
<!DOCTYPE svg PUBLIC "-//W3C//DTD SVG 1.1//EN" "http://www.w3.org/Graphics/SVG/1.1/DTD/svg11.dtd">
<!-- Creator: CorelDRAW 2020 (64-Bit) -->
<svg xmlns="http://www.w3.org/2000/svg" xml:space="preserve" width="297mm" height="210mm" version="1.1" style="shape-rendering:geometricPrecision; text-rendering:geometricPrecision; image-rendering:optimizeQuality; fill-rule:evenodd; clip-rule:evenodd"
viewBox="0 0 297000 210000"
 xmlns:xlink="http://www.w3.org/1999/xlink"
 xmlns:xodm="http://www.corel.com/coreldraw/odm/2003">
 <defs>
  <style type="text/css">
   <![CDATA[
    .fil1 {fill:black}
    .fil0 {fill:black;fill-rule:nonzero}
   ]]>
  </style>
 </defs>
 <g id="Layer_x0020_1">
  <metadata id="CorelCorpID_0Corel-Layer"/>
  <g id="_1806265915600">
   <path class="fil0" d="M208818.4 117559.1l-279.9 0 0 2012.9 373.2 0c519.3,0 914.9,-87 1188.7,-262.7 273.8,-175.7 409.8,-427.8 409.8,-756.2 0,-344.4 -133.9,-594.6 -403.7,-754.4 -269.9,-159.8 -699.9,-239.6 -1288.1,-239.6zm-2336.8 6155.9l0 -7540.5 2217.1 0c681.6,0 1223.2,42.6 1622.8,129.6 399.7,87 754.6,232.5 1065,436.7 320.5,204.1 570,459.7 746.4,766.8 176.5,307.1 263.8,631.9 263.8,974.5 0,763.3 -310.4,1366.8 -931.1,1814.1 -618.7,447.3 -1460.5,671 -2523.5,671 -109.5,0 -192.7,0 -249.5,-1.8 -54.7,-1.8 -107.5,-5.3 -154.1,-8.9l0 2758.5 -2056.9 0zm9525.8 -6166.6l-338.8 0 0 2087.5 434.1 0c519.3,0 914.9,-92.3 1188.7,-275.1 273.8,-182.9 409.8,-447.4 409.8,-789.9 0,-360.4 -131.8,-619.5 -397.5,-781.1 -265.8,-161.5 -697.9,-241.4 -1296.3,-241.4zm-2334.8 6166.6l0 -7540.5 2215.2 0c709.9,0 1259.6,40.8 1651.2,122.5 391.4,81.6 736.3,216.6 1038.5,408.3 320.6,200.5 570,449.1 746.5,745.5 176.4,296.4 263.7,608.8 263.7,937.2 0,475.7 -137.9,891.1 -413.8,1247.9 -275.8,356.8 -673.5,635.5 -1192.8,837.8l2629 3241.3 -2349 0 -2300.3 -2960.8 -292.2 0 0 2960.8 -1996 0zm9337.2 -3770.2c0,655 219,1205.2 657.3,1647.2 438.1,442 977.6,663.9 1618.7,663.9 645,0 1186.7,-220.1 1622.8,-660.3 436.2,-442 653.2,-992.3 653.2,-1650.8 0,-662.1 -217,-1216 -653.2,-1658 -436.1,-441.9 -977.8,-663.8 -1622.8,-663.8 -641.1,0 -1180.6,221.9 -1618.7,663.8 -438.3,442 -657.3,995.9 -657.3,1658zm-2117.7 0c0,-559.2 109.5,-1081.1 330.6,-1567.4 219.1,-488.2 543.6,-923.1 971.7,-1308.2 403.6,-367.5 874.2,-649.7 1409.7,-845 533.6,-197 1095.5,-294.6 1681.7,-294.6 586.3,0 1148.1,99.4 1685.6,296.4 537.6,197 1014.4,482.8 1430.2,853.8 419.9,371 738.4,798.8 953.3,1286.9 217.2,486.4 324.7,1013.6 324.7,1578.1 0,472.1 -75.1,915.9 -225.2,1331.3 -152.2,415.3 -375.3,795.2 -673.5,1139.6 -419.8,488.1 -935.1,868 -1547.8,1137.8 -612.5,271.6 -1261.7,406.5 -1947.3,406.5 -582.2,0 -1140,-99.4 -1673.6,-296.5 -533.4,-197 -1006.1,-482.8 -1417.8,-853.8 -428.1,-383.4 -752.6,-818.3 -971.7,-1302.9 -221.1,-482.8 -330.6,-1004.7 -330.6,-1562zm15613.3 2406.9l856.1 0c409.8,0 734.3,-88.7 969.6,-264.4 235.3,-177.5 353,-419 353,-727.8 0,-301.8 -115.6,-534.3 -344.9,-699.4 -229.2,-165.1 -555.8,-246.7 -977.7,-246.7l-856.1 0 0 1938.3zm0 -3195.1l683.6 0c403.8,0 718.1,-78.1 947.4,-232.5 227.2,-154.4 340.7,-372.8 340.7,-653.2 0,-282.3 -107.5,-488.2 -324.5,-619.5 -215.1,-133.2 -551.7,-198.8 -1012.3,-198.8l-634.9 0 0 1704zm-1874.3 4558.4l0 -7540.5 2663.4 0c1004.1,0 1760.8,159.8 2274,481.1 513.2,321.2 770.8,797 770.8,1428.9 0,385.2 -117.6,711.8 -350.9,979.8 -235.3,269.8 -588.2,477.5 -1060.9,626.6 525.3,104.8 935.1,317.8 1233.3,642.6 298.1,324.8 446.3,720.7 446.3,1187.5 0,724.2 -306.3,1271 -919,1640.2 -612.5,369.2 -1519.3,553.8 -2720.1,553.8l-2336.9 0zm9041 -3770.2c0,655 219.1,1205.2 657.3,1647.2 438.2,442 977.7,663.9 1618.8,663.9 644.9,0 1186.6,-220.1 1622.7,-660.3 436.2,-442 653.2,-992.3 653.2,-1650.8 0,-662.1 -217,-1216 -653.2,-1658 -436.1,-441.9 -977.8,-663.8 -1622.7,-663.8 -641.1,0 -1180.6,221.9 -1618.8,663.8 -438.2,442 -657.3,995.9 -657.3,1658zm-2117.7 0c0,-559.2 109.5,-1081.1 330.6,-1567.4 219.1,-488.2 543.6,-923.1 971.7,-1308.2 403.7,-367.5 874.2,-649.7 1409.8,-845 533.5,-197 1095.4,-294.6 1681.7,-294.6 586.2,0 1148,99.4 1685.6,296.4 537.5,197 1014.3,482.8 1430.1,853.8 419.9,371 738.4,798.8 953.3,1286.9 217.2,486.4 324.7,1013.6 324.7,1578.1 0,472.1 -75.1,915.9 -225.2,1331.3 -152.1,415.3 -375.3,795.2 -673.5,1139.6 -419.8,488.1 -935.1,868 -1547.7,1137.8 -612.6,271.6 -1261.8,406.5 -1947.3,406.5 -582.3,0 -1140.1,-99.4 -1673.6,-296.5 -533.5,-197 -1006.1,-482.8 -1417.9,-853.8 -428.1,-383.4 -752.6,-818.3 -971.7,-1302.9 -221.1,-482.8 -330.6,-1004.7 -330.6,-1562zm11803.8 0c0,655 219,1205.2 657.3,1647.2 438.1,442 977.6,663.9 1618.7,663.9 645,0 1186.7,-220.1 1622.8,-660.3 436.2,-442 653.2,-992.3 653.2,-1650.8 0,-662.1 -217,-1216 -653.2,-1658 -436.1,-441.9 -977.8,-663.8 -1622.8,-663.8 -641.1,0 -1180.6,221.9 -1618.7,663.8 -438.3,442 -657.3,995.9 -657.3,1658zm-2117.7 0c0,-559.2 109.5,-1081.1 330.6,-1567.4 219.1,-488.2 543.6,-923.1 971.7,-1308.2 403.6,-367.5 874.2,-649.7 1409.7,-845 533.6,-197 1095.5,-294.6 1681.7,-294.6 586.3,0 1148.1,99.4 1685.6,296.4 537.6,197 1014.3,482.8 1430.2,853.8 419.9,371 738.4,798.8 953.3,1286.9 217.1,486.4 324.7,1013.6 324.7,1578.1 0,472.1 -75.1,915.9 -225.3,1331.3 -152.1,415.3 -375.3,795.2 -673.4,1139.6 -419.9,488.1 -935.1,868 -1547.8,1137.8 -612.5,271.6 -1261.7,406.5 -1947.3,406.5 -582.2,0 -1140,-99.4 -1673.6,-296.5 -533.4,-197 -1006.1,-482.8 -1417.8,-853.8 -428.1,-383.4 -752.6,-818.3 -971.7,-1302.9 -221.1,-482.8 -330.6,-1004.7 -330.6,-1562zm10221.5 3770.2l0 -7540.5 2032.6 0 0 3282.1 2846 -3282.1 2448.4 0 -3249.6 3587.4 3505.2 3953.1 -2482.9 0 -3067.1 -3473.8 0 3473.8 -2032.6 0z"/>
   <g>
    <path class="fil1" d="M243044.7 87144.7c-1751.7,618.2 -1236.5,3194.2 -1236.5,4945.9 0,3194.3 -515.2,7109.8 3503.4,8964.5 1751.7,721.3 3709.4,515.3 5770.3,515.3 2472.9,0 10716.2,206 12467.9,0 2060.8,-103.1 3194.2,-927.4 4224.6,-1957.8 1133.5,-1236.5 1236.5,-2988.2 1236.5,-5049 0,-1133.5 206.1,-5255.1 0,-6182.4 -515.2,-1751.7 -3194.2,-1339.6 -5049,-1339.6 -2782.1,0 -3297.3,206.1 -3297.3,2988.2 0,1957.8 515.2,4533.8 -1030.4,5255.1 -721.3,309.1 -4945.9,103 -6079.4,103 -3812.5,0 -3400.3,-515.2 -3400.3,-5976.3 0,-1030.4 -206.1,-1751.7 -927.4,-2163.9 -618.2,-206.1 -5461.1,-309.1 -6182.4,-103z"/>
    <path class="fil1" d="M191009.2 100643l-4430.7 -4842.9c-515.2,-618.3 -927.4,-1030.4 -1545.6,-1648.7 -618.3,-721.3 -2163.9,-3091.2 -3812.5,-1442.5 -721.3,618.2 -618.3,1339.5 -618.3,2472.9 0,721.3 -103,2576.1 103.1,3091.3 206,618.2 3400.3,4018.5 4224.6,5048.9l4430.8 5049c1854.7,1957.8 1339.5,1545.6 4739.8,1545.6 5976.4,0 5255.1,618.3 5255.1,-7212.8 0,-4224.7 0,-8346.3 0,-12571 0,-2679 -412.2,-3091.2 -3091.2,-3091.2 -1957.8,0 -4533.8,-412.1 -5152,1236.5 -309.2,927.4 0,10304.1 -103.1,12364.9z"/>
    <path class="fil1" d="M116820.1 100643l-1545.6 -1545.6c-206.1,-309.1 -515.2,-515.2 -721.3,-824.3l-5255.1 -5667.3c-618.2,-618.2 -1751.6,-515.2 -2369.9,0 -618.2,618.3 -515.2,1442.6 -515.2,2576 0,2885.2 -412.2,2988.2 1442.6,4842.9 515.2,515.2 927.3,1133.5 1442.5,1648.7 1030.4,1133.4 2060.9,2266.9 2988.2,3297.3 206.1,309.1 412.2,515.2 721.3,824.3l2163.9 2576c412.1,412.2 1030.4,1236.5 1648.6,1442.6 515.2,206.1 5255.1,103 6182.4,103 1133.5,0 1648.7,-309.1 2060.8,-1030.4 309.2,-824.3 103.1,-17207.7 103.1,-18753.4 0,-2782 -412.2,-3091.2 -3091.2,-3091.2 -6594.6,0 -5152.1,-1236.5 -5255.1,13601.4z"/>
    <path class="fil1" d="M159684.9 87144.7c-1133.5,206.1 -1648.7,824.3 -1648.7,2163.8 0,2679.1 -103,18753.4 103.1,19474.7 412.1,1133.4 1339.5,1133.4 2782.1,1133.4 1133.4,0 2885.1,103.1 3915.5,0 515.2,0 927.4,-412.1 1133.5,-721.2 412.1,-412.2 412.1,-824.4 412.1,-1545.7 0,-2679 206.1,-18753.3 -103,-19474.6 -515.2,-1030.4 -1339.6,-1133.5 -2782.1,-1133.5 -927.4,103.1 -2988.2,-103 -3812.5,103.1z"/>
    <path class="fil1" d="M85495.8 87144.7c-1133.5,206.1 -1648.7,824.3 -1648.7,2163.8 0,2679.1 -103,18753.4 103.1,19474.7 412.1,1133.4 1339.5,1133.4 2782.1,1133.4 6079.4,0 5461.1,721.3 5461.1,-6182.4 0,-1854.7 206.1,-14837.8 -103,-15559.1 -515.2,-1030.4 -1442.6,-1133.5 -2782.1,-1133.5 -927.4,103.1 -2988.2,-103 -3812.5,103.1z"/>
    <path class="fil1" d="M204404.5 87247.7c-1236.5,515.2 -1236.5,1236.5 -1133.5,2679.1l0 11746.6c0,1442.6 -309.1,6697.6 206.1,7522 721.3,927.3 1854.7,721.2 3194.3,721.2 3503.4,0 4945.9,618.3 4945.9,-2782.1l0 -11746.6c0,-1442.6 206.1,-6594.6 -309.1,-7418.9 -721.3,-1030.4 -1648.6,-927.4 -3091.2,-927.4 -927.4,0 -3091.2,-103 -3812.5,206.1z"/>
    <path class="fil1" d="M171637.6 87144.7c-1133.5,412.1 -1339.5,1236.5 -1339.5,2576l0 11746.6c0,1442.6 -206.1,6594.6 206,7522 618.3,1030.4 1545.6,927.3 2988.2,927.3 5770.3,0 5152,618.3 5152,-6491.5 0,-1854.7 206.1,-14631.8 -206,-15353.1 -515.2,-1030.4 -1648.7,-1030.4 -2988.2,-1030.4 -824.3,0 -3194.3,-103 -3812.5,103.1z"/>
    <path class="fil1" d="M97345.4 87247.7c-1133.4,412.2 -1236.5,1133.5 -1236.5,2576l0 11746.7c0,1442.5 -206,6594.5 206.1,7418.9 618.3,1030.4 1648.7,927.3 3091.2,927.3 5667.3,0 5049,618.3 5049,-6594.6 0,-2576 0,-5255 0,-7831 0,-7728.1 824.4,-8449.4 -3297.3,-8449.4 -927.3,0 -3091.2,-103 -3812.5,206.1z"/>
    <path class="fil1" d="M137531.2 101673.4c2679,-103 5564.1,-103 8243.2,0 721.3,0 1236.5,-103 1648.7,-515.2 412.1,-206.1 618.2,-721.3 721.2,-1442.6 103.1,-5152 -206,-4327.7 -8243.2,-4327.7 -2782.1,0 -5667.1,0 -8449.2,0 -3091.3,0 -2370,2370 -2370,5976.4 0,1442.5 0,2782.1 0,4224.6 0,1236.5 -206.1,2988.2 515.2,3709.5 721.3,927.4 2060.8,618.2 3503.4,618.2 1339.5,0 2885.1,309.2 3709.5,-515.2 1236.4,-1030.4 309,-5358.1 721.2,-7728z"/>
    <path class="fil1" d="M130730.6 87144.7c-1236.5,103 -1648.7,927.3 -1648.7,2266.9 0,4842.9 -103,4121.6 7831.1,4121.6 1133.4,0 15043.8,103 15868.2,-103.1 1133.4,-103 1545.6,-927.3 1545.6,-2266.8 0,-4843 0,-4121.7 -7831.1,-4121.7 -1133.5,0 -14940.8,0 -15765.1,103.1z"/>
    <path class="fil1" d="M215635.9 87247.7c-1133.4,103.1 -1545.6,1030.4 -1545.6,2266.9 0,3915.5 -103,4018.6 3812.5,4018.6 1957.8,0 18753.4,103 19474.7,0 1133.4,-206.1 1545.6,-1133.5 1545.6,-2369.9 -103.1,-1236.5 206.1,-2679.1 -618.3,-3503.4 -721.3,-721.3 -2060.8,-515.2 -3297.3,-515.2 -1957.7,0 -18650.3,-103.1 -19371.6,103z"/>
    <path class="fil1" d="M223879.2 95491c-1854.8,515.2 -1442.6,2369.9 -1442.6,4327.7 0,1854.7 0,3812.5 0,5667.2 0,1751.7 -412.2,3915.5 1236.5,4430.7 515.2,103.1 5255,103.1 5770.2,0 1648.7,-515.2 1339.6,-2576 1339.6,-4327.7 0,-1854.7 0,-3812.5 0,-5667.2 0,-1751.7 309.1,-3915.5 -1339.6,-4327.7 -412.1,-103 -5255,-206.1 -5564.1,-103z"/>
    <path class="fil1" d="M252009.2 103631.2c-1236.5,206 -1545.6,1133.4 -1545.6,2576 103.1,1545.6 -206.1,2576 824.3,3297.3 721.3,721.3 2473,412.1 3606.5,412.1 2369.9,0 4224.6,515.2 5152,-824.3 309.1,-515.2 206.1,-1236.5 206.1,-1854.7 0,-1442.6 309.1,-2576 -721.3,-3297.3 -721.3,-618.3 -2576,-412.2 -3606.4,-412.2 -927.4,0 -3194.3,-103 -3915.6,103.1z"/>
    <path class="fil1" d="M65939.5 87335.3c1263.9,459.5 4136.4,4710.9 5055.6,6549.5 6319.8,12524.5 1378.9,27117.4 -11490.3,33437 -2757.7,1378.9 -9422.2,3102.5 -12869.4,1723.6 -2872.5,-1149 -4711,-3676.9 -4711,-6894.2l0 -11605.3c0,-2527.9 -114.9,-3906.8 1723.6,-6090 1034.2,-1378.8 2987.4,-2527.9 5170.7,-2642.7 2183.2,-115 5630.3,-115 7813.5,0l0 12524.4c0,1493.7 -114.9,2527.9 689.3,3562.1 574.6,689.4 1493.8,1378.7 2872.7,1263.9 2527.9,-114.9 5515.4,-4251.4 6664.4,-6089.9 2412.9,-3676.9 3676.9,-8043.3 3562,-13328.9 -114.9,-3217.3 -1263.9,-7238.9 -2757.6,-9881.6 -344.8,-459.7 -459.6,-689.5 -804.4,-1264 -115,-114.9 -919.1,-1263.9 -919.1,-1263.9z"/>
    <path class="fil1" d="M32387.4 122610.7c-1034.1,-459.5 -3791.8,-4366.2 -4596.1,-5745.2 -2872.6,-5515.4 -3562.2,-10915.9 -2413.1,-17120.7 1378.9,-7124 7239.1,-14133.1 14133.2,-17120.6 4711.1,-1953.4 12294.9,-3791.9 15742,1034.2 3561.9,4940.8 0,11834.9 -6204.9,11605.2 -4136.6,-114.9 -5285.6,-2757.7 -6434.6,-3906.7 -1034.1,-804.4 -2527.9,-1264 -4021.6,-919.3 -2757.8,804.3 -6204.9,5285.6 -7698.6,7928.5 -2987.5,5285.4 -3562.1,11375.4 -1953.5,17235.4 1263.9,4251.5 3102.5,6204.8 3447.2,7009.2z"/>
   </g>
  </g>
 </g>
</svg>
