<?xml version="1.0" encoding="UTF-8"?>
<!DOCTYPE svg PUBLIC "-//W3C//DTD SVG 1.1//EN" "http://www.w3.org/Graphics/SVG/1.1/DTD/svg11.dtd">
<!-- Creator: CorelDRAW 2020 (64-Bit) -->
<svg xmlns="http://www.w3.org/2000/svg" xml:space="preserve" width="297mm" height="210mm" version="1.1" style="shape-rendering:geometricPrecision; text-rendering:geometricPrecision; image-rendering:optimizeQuality; fill-rule:evenodd; clip-rule:evenodd"
viewBox="0 0 297000 210000"
 xmlns:xlink="http://www.w3.org/1999/xlink"
 xmlns:xodm="http://www.corel.com/coreldraw/odm/2003">
 <defs>
  <style type="text/css">
   <![CDATA[
    .fil0 {fill:black}
   ]]>
  </style>
 </defs>
 <g id="Layer_x0020_1">
  <metadata id="CorelCorpID_0Corel-Layer"/>
  <g id="_1391708335824">
   <g>
    <path class="fil0" d="M58140.1 87335.3c1263.9,459.5 4136.4,4710.9 5055.6,6549.5 6319.8,12524.5 1378.9,27117.4 -11490.3,33437 -2757.7,1378.9 -9422.2,3102.5 -12869.4,1723.6 -2872.5,-1149 -4711,-3676.9 -4711,-6894.2l0 -11605.3c0,-2527.9 -114.9,-3906.8 1723.6,-6090 1034.2,-1378.8 2987.4,-2527.9 5170.7,-2642.7 2183.2,-115 5630.3,-115 7813.5,0l0 12524.4c0,1493.7 -114.9,2527.9 689.3,3562.1 574.6,689.4 1493.8,1378.7 2872.7,1263.9 2527.9,-114.9 5515.4,-4251.4 6664.4,-6089.9 2412.9,-3676.9 3676.9,-8043.3 3562,-13328.9 -114.9,-3217.3 -1263.9,-7238.9 -2757.6,-9881.6 -344.8,-459.7 -459.6,-689.5 -804.4,-1264 -115,-114.9 -919.1,-1263.9 -919.1,-1263.9z"/>
    <path class="fil0" d="M24588 122610.7c-1034.1,-459.5 -3791.8,-4366.2 -4596.1,-5745.2 -2872.6,-5515.4 -3562.2,-10915.9 -2413.1,-17120.7 1378.9,-7124 7239.1,-14133.1 14133.2,-17120.6 4711.1,-1953.4 12294.9,-3791.9 15742,1034.2 3561.9,4940.8 0,11834.9 -6204.9,11605.2 -4136.6,-114.9 -5285.6,-2757.7 -6434.6,-3906.7 -1034.1,-804.4 -2527.9,-1264 -4021.6,-919.3 -2757.8,804.3 -6204.9,5285.6 -7698.6,7928.5 -2987.5,5285.4 -3562.1,11375.4 -1953.5,17235.4 1263.9,4251.5 3102.5,6204.8 3447.2,7009.2z"/>
   </g>
   <g>
    <path class="fil0" d="M251548.3 92796c-1908.5,673.5 -1347.2,3480.2 -1347.2,5388.7 0,3480.3 -561.3,7746.4 3817.1,9767.1 1908.6,785.9 4041.5,561.5 6287,561.5 2694.3,0 11675.7,224.4 13584.2,0 2245.3,-112.3 3480.2,-1010.4 4602.9,-2133.1 1234.9,-1347.2 1347.2,-3255.8 1347.2,-5501.1 0,-1235 224.5,-5725.6 0,-6735.9 -561.4,-1908.6 -3480.2,-1459.6 -5501.1,-1459.6 -3031.2,0 -3592.5,224.6 -3592.5,3255.8 0,2133.1 561.3,4939.7 -1122.7,5725.6 -785.9,336.8 -5388.7,112.2 -6623.7,112.2 -4153.9,0 -3704.8,-561.3 -3704.8,-6511.4 0,-1122.6 -224.5,-1908.5 -1010.4,-2357.6 -673.6,-224.6 -5950.1,-336.8 -6736,-112.2z"/>
    <path class="fil0" d="M194853.8 107502.9l-4827.4 -5276.6c-561.4,-673.6 -1010.5,-1122.6 -1684,-1796.3 -673.7,-785.9 -2357.7,-3368 -4153.9,-1571.6 -785.9,673.5 -673.6,1459.4 -673.6,2694.3 0,785.9 -112.3,2806.7 112.3,3368.1 224.4,673.5 3704.7,4378.3 4602.8,5500.9l4827.6 5501.1c2020.7,2133.1 1459.4,1684 5164.1,1684 6511.6,0 5725.7,673.6 5725.7,-7858.6 0,-4603 0,-9093.6 0,-13696.6 0,-2918.9 -449.1,-3368 -3368,-3368 -2133.1,0 -4939.7,-449 -5613.3,1347.2 -336.9,1010.5 0,11226.7 -112.3,13472.1z"/>
    <path class="fil0" d="M114021.9 107502.9l-1684 -1684c-224.5,-336.8 -561.3,-561.4 -785.8,-898.1l-5725.7 -6174.8c-673.5,-673.5 -1908.4,-561.3 -2582.1,0 -673.5,673.7 -561.3,1571.8 -561.3,2806.7 0,3143.5 -449.1,3255.7 1571.8,5276.5 561.3,561.3 1010.3,1235 1571.6,1796.3 1122.7,1234.9 2245.5,2469.9 3255.8,3592.5 224.5,336.8 449.1,561.4 785.9,898.1l2357.6 2806.7c449,449.1 1122.7,1347.2 1796.2,1571.8 561.4,224.5 5725.7,112.2 6736,112.2 1235,0 1796.3,-336.8 2245.3,-1122.7 336.9,-898.1 112.3,-18748.4 112.3,-20432.5 0,-3031.1 -449.1,-3368 -3367.9,-3368 -7185.1,0 -5613.4,-1347.2 -5725.7,14819.3z"/>
    <path class="fil0" d="M160724.8 92796c-1235,224.5 -1796.3,898.1 -1796.3,2357.5 0,2919 -112.2,20432.5 112.3,21218.4 449,1234.9 1459.5,1234.9 3031.2,1234.9 1234.9,0 3143.4,112.3 4266.1,0 561.3,0 1010.4,-449 1235,-785.8 449,-449.1 449,-898.2 449,-1684.1 0,-2918.9 224.5,-20432.4 -112.2,-21218.3 -561.4,-1122.6 -1459.6,-1235 -3031.2,-1235 -1010.5,112.4 -3255.8,-112.2 -4153.9,112.4z"/>
    <path class="fil0" d="M79893 92796c-1235,224.5 -1796.4,898.1 -1796.4,2357.5 0,2919 -112.2,20432.5 112.4,21218.4 449,1234.9 1459.4,1234.9 3031.2,1234.9 6623.7,0 5950,785.9 5950,-6736 0,-2020.7 224.6,-16166.3 -112.2,-16952.2 -561.3,-1122.6 -1571.7,-1235 -3031.2,-1235 -1010.4,112.4 -3255.7,-112.2 -4153.8,112.4z"/>
    <path class="fil0" d="M209448.4 92908.2c-1347.2,561.3 -1347.2,1347.2 -1235,2919l0 12798.3c0,1571.8 -336.7,7297.3 224.6,8195.5 785.9,1010.3 2020.8,785.8 3480.3,785.8 3817.1,0 5388.7,673.6 5388.7,-3031.2l0 -12798.4c0,-1571.7 224.6,-7185 -336.7,-8083.1 -785.9,-1122.7 -1796.2,-1010.5 -3368,-1010.5 -1010.4,0 -3368,-112.2 -4153.9,224.6z"/>
    <path class="fil0" d="M173747.7 92796c-1235,449 -1459.4,1347.2 -1459.4,2806.6l0 12798.4c0,1571.7 -224.6,7185 224.4,8195.5 673.7,1122.6 1684,1010.3 3255.8,1010.3 6286.9,0 5613.3,673.6 5613.3,-7072.7 0,-2020.8 224.5,-15941.9 -224.5,-16727.8 -561.3,-1122.7 -1796.3,-1122.7 -3255.7,-1122.7 -898.1,0 -3480.3,-112.2 -4153.9,112.4z"/>
    <path class="fil0" d="M92803.5 92908.2c-1234.8,449.1 -1347.2,1235 -1347.2,2806.6l0 12798.5c0,1571.6 -224.4,7184.9 224.6,8083.2 673.6,1122.6 1796.3,1010.3 3368,1010.3 6174.7,0 5501,673.6 5501,-7185.1 0,-2806.6 0,-5725.5 0,-8532.1 0,-8420.1 898.2,-9206 -3592.5,-9206 -1010.3,0 -3368,-112.2 -4153.9,224.6z"/>
    <path class="fil0" d="M136587.5 108625.5c2918.9,-112.2 6062.3,-112.2 8981.3,0 785.9,0 1347.2,-112.2 1796.3,-561.3 449,-224.6 673.6,-785.9 785.8,-1571.8 112.3,-5613.3 -224.4,-4715.2 -8981.3,-4715.2 -3031.2,0 -6174.6,0 -9205.8,0 -3368.1,0 -2582.2,2582.2 -2582.2,6511.5 0,1571.7 0,3031.2 0,4602.9 0,1347.2 -224.5,3255.7 561.3,4041.6 785.9,1010.5 2245.4,673.6 3817.1,673.6 1459.5,0 3143.4,336.9 4041.7,-561.4 1347.2,-1122.6 336.7,-5837.8 785.8,-8419.9z"/>
    <path class="fil0" d="M129177.9 92796c-1347.2,112.2 -1796.3,1010.3 -1796.3,2469.8 0,5276.5 -112.2,4490.7 8532.3,4490.7 1235,0 16390.9,112.2 17289.1,-112.4 1234.9,-112.2 1684,-1010.3 1684,-2469.7 0,-5276.7 0,-4490.8 -8532.3,-4490.8 -1235,0 -16278.7,0 -17176.8,112.4z"/>
    <path class="fil0" d="M221685.5 92908.2c-1234.9,112.3 -1684,1122.6 -1684,2469.9 0,4266 -112.3,4378.4 4153.8,4378.4 2133.1,0 20432.5,112.2 21218.4,0 1234.9,-224.6 1684,-1235 1684,-2582.1 -112.3,-1347.2 224.6,-2919 -673.6,-3817.1 -785.9,-785.9 -2245.4,-561.3 -3592.6,-561.3 -2133,0 -20320.2,-112.4 -21106,112.2z"/>
    <path class="fil0" d="M230666.8 101889.6c-2020.8,561.3 -1571.7,2582.1 -1571.7,4715.1 0,2020.8 0,4153.9 0,6174.7 0,1908.5 -449.1,4266 1347.2,4827.4 561.3,112.3 5725.5,112.3 6286.8,0 1796.3,-561.4 1459.6,-2806.7 1459.6,-4715.2 0,-2020.8 0,-4153.9 0,-6174.6 0,-1908.6 336.7,-4266.1 -1459.6,-4715.2 -449,-112.2 -5725.5,-224.6 -6062.3,-112.2z"/>
    <path class="fil0" d="M261315.5 110758.6c-1347.2,224.4 -1684,1234.9 -1684,2806.7 112.3,1683.9 -224.5,2806.6 898.1,3592.5 785.9,785.9 2694.4,449 3929.4,449 2582.1,0 4602.9,561.3 5613.3,-898.1 336.8,-561.4 224.6,-1347.2 224.6,-2020.8 0,-1571.8 336.7,-2806.6 -785.9,-3592.5 -785.9,-673.7 -2806.7,-449.1 -3929.3,-449.1 -1010.5,0 -3480.3,-112.2 -4266.2,112.3z"/>
   </g>
  </g>
 </g>
</svg>
