<?xml version="1.0" encoding="UTF-8"?>
<!DOCTYPE svg PUBLIC "-//W3C//DTD SVG 1.1//EN" "http://www.w3.org/Graphics/SVG/1.1/DTD/svg11.dtd">
<!-- Creator: CorelDRAW 2020 (64-Bit) -->
<svg xmlns="http://www.w3.org/2000/svg" xml:space="preserve" width="297mm" height="210mm" version="1.1" style="shape-rendering:geometricPrecision; text-rendering:geometricPrecision; image-rendering:optimizeQuality; fill-rule:evenodd; clip-rule:evenodd"
viewBox="0 0 297000 210000"
 xmlns:xlink="http://www.w3.org/1999/xlink"
 xmlns:xodm="http://www.corel.com/coreldraw/odm/2003">
 <defs>
  <style type="text/css">
   <![CDATA[
    .fil0 {fill:black}
   ]]>
  </style>
 </defs>
 <g id="Layer_x0020_1">
  <metadata id="CorelCorpID_0Corel-Layer"/>
  <g id="_1843214146080">
   <path class="fil0" d="M165142.4 87335.3c1263.9,459.5 4136.4,4710.9 5055.6,6549.5 6319.8,12524.5 1378.9,27117.4 -11490.3,33437 -2757.7,1378.9 -9422.2,3102.5 -12869.4,1723.6 -2872.5,-1149 -4711,-3676.9 -4711,-6894.2l0 -11605.3c0,-2527.9 -114.9,-3906.8 1723.6,-6090 1034.2,-1378.8 2987.4,-2527.9 5170.7,-2642.7 2183.2,-115 5630.3,-115 7813.5,0l0 12524.4c0,1493.7 -114.9,2527.9 689.3,3562.1 574.6,689.4 1493.8,1378.7 2872.7,1263.9 2527.9,-114.9 5515.4,-4251.4 6664.4,-6089.9 2412.9,-3676.9 3676.9,-8043.3 3562,-13328.9 -114.9,-3217.3 -1263.9,-7238.9 -2757.6,-9881.6 -344.8,-459.7 -459.6,-689.5 -804.4,-1264 -115,-114.9 -919.1,-1263.9 -919.1,-1263.9z"/>
   <path class="fil0" d="M131590.3 122610.7c-1034.1,-459.5 -3791.8,-4366.2 -4596.1,-5745.2 -2872.6,-5515.4 -3562.2,-10915.9 -2413,-17120.7 1378.8,-7124 7239,-14133.1 14133.1,-17120.6 4711.1,-1953.4 12294.9,-3791.9 15742,1034.2 3561.9,4940.8 0,11834.9 -6204.9,11605.2 -4136.6,-114.9 -5285.6,-2757.7 -6434.6,-3906.7 -1034.1,-804.4 -2527.9,-1264 -4021.6,-919.3 -2757.8,804.3 -6204.9,5285.6 -7698.6,7928.5 -2987.5,5285.4 -3562.1,11375.4 -1953.5,17235.4 1263.9,4251.5 3102.5,6204.8 3447.2,7009.2z"/>
  </g>
 </g>
</svg>
